<mxfile host="app.diagrams.net" agent="Mozilla/5.0 (Windows NT 10.0; Win64; x64) AppleWebKit/537.36 (KHTML, like Gecko) Chrome/131.0.0.0 Safari/537.36 Edg/131.0.0.0" version="25.0.3">
  <diagram id="C5RBs43oDa-KdzZeNtuy" name="Page-1">
    <mxGraphModel dx="1917" dy="596" grid="1" gridSize="10" guides="1" tooltips="1" connect="1" arrows="1" fold="1" page="1" pageScale="1" pageWidth="827" pageHeight="1169" math="0" shadow="0">
      <root>
        <mxCell id="WIyWlLk6GJQsqaUBKTNV-0" />
        <mxCell id="WIyWlLk6GJQsqaUBKTNV-1" parent="WIyWlLk6GJQsqaUBKTNV-0" />
        <mxCell id="mvioNwK95yMqdUQ73LqQ-36" value="" style="swimlane;fontFamily=Sarabun;fontSource=https%3A%2F%2Ffonts.googleapis.com%2Fcss%3Ffamily%3DSarabun;" parent="WIyWlLk6GJQsqaUBKTNV-1" vertex="1">
          <mxGeometry x="-740" y="60" width="640" height="1670" as="geometry" />
        </mxCell>
        <mxCell id="pXdczCPLqUhGzNIIeVMN-3" style="edgeStyle=orthogonalEdgeStyle;rounded=0;orthogonalLoop=1;jettySize=auto;html=1;" parent="mvioNwK95yMqdUQ73LqQ-36" source="mvioNwK95yMqdUQ73LqQ-35" edge="1">
          <mxGeometry relative="1" as="geometry">
            <mxPoint x="320" y="130" as="targetPoint" />
          </mxGeometry>
        </mxCell>
        <mxCell id="mvioNwK95yMqdUQ73LqQ-35" value="&lt;font data-font-src=&quot;https://fonts.googleapis.com/css?family=Sarabun&quot; face=&quot;Sarabun&quot;&gt;Start&lt;/font&gt;" style="ellipse;whiteSpace=wrap;html=1;" parent="mvioNwK95yMqdUQ73LqQ-36" vertex="1">
          <mxGeometry x="255" y="40" width="130" height="30" as="geometry" />
        </mxCell>
        <mxCell id="80OV8Sp7y3rcq8Tu3NWQ-3" style="edgeStyle=orthogonalEdgeStyle;rounded=0;orthogonalLoop=1;jettySize=auto;html=1;" parent="mvioNwK95yMqdUQ73LqQ-36" source="80OV8Sp7y3rcq8Tu3NWQ-1" edge="1">
          <mxGeometry relative="1" as="geometry">
            <mxPoint x="320" y="280" as="targetPoint" />
          </mxGeometry>
        </mxCell>
        <mxCell id="80OV8Sp7y3rcq8Tu3NWQ-1" value="Declare&lt;br&gt;FILE *file&lt;div&gt;char c&amp;nbsp;&lt;/div&gt;" style="rounded=0;whiteSpace=wrap;html=1;" parent="mvioNwK95yMqdUQ73LqQ-36" vertex="1">
          <mxGeometry x="260" y="130" width="120" height="60" as="geometry" />
        </mxCell>
        <mxCell id="80OV8Sp7y3rcq8Tu3NWQ-15" style="edgeStyle=orthogonalEdgeStyle;rounded=0;orthogonalLoop=1;jettySize=auto;html=1;entryX=0.5;entryY=0;entryDx=0;entryDy=0;" parent="mvioNwK95yMqdUQ73LqQ-36" source="80OV8Sp7y3rcq8Tu3NWQ-2" target="80OV8Sp7y3rcq8Tu3NWQ-13" edge="1">
          <mxGeometry relative="1" as="geometry" />
        </mxCell>
        <mxCell id="80OV8Sp7y3rcq8Tu3NWQ-2" value="Open file&amp;nbsp;a15-9.txt in read mode" style="rounded=0;whiteSpace=wrap;html=1;" parent="mvioNwK95yMqdUQ73LqQ-36" vertex="1">
          <mxGeometry x="260" y="280" width="120" height="60" as="geometry" />
        </mxCell>
        <mxCell id="80OV8Sp7y3rcq8Tu3NWQ-10" style="edgeStyle=orthogonalEdgeStyle;rounded=0;orthogonalLoop=1;jettySize=auto;html=1;" parent="mvioNwK95yMqdUQ73LqQ-36" source="80OV8Sp7y3rcq8Tu3NWQ-4" edge="1">
          <mxGeometry relative="1" as="geometry">
            <mxPoint x="320" y="770" as="targetPoint" />
          </mxGeometry>
        </mxCell>
        <mxCell id="80OV8Sp7y3rcq8Tu3NWQ-18" style="edgeStyle=orthogonalEdgeStyle;rounded=0;orthogonalLoop=1;jettySize=auto;html=1;" parent="mvioNwK95yMqdUQ73LqQ-36" source="80OV8Sp7y3rcq8Tu3NWQ-4" target="80OV8Sp7y3rcq8Tu3NWQ-17" edge="1">
          <mxGeometry relative="1" as="geometry">
            <Array as="points">
              <mxPoint x="610" y="645" />
              <mxPoint x="610" y="1350" />
              <mxPoint x="305" y="1350" />
            </Array>
          </mxGeometry>
        </mxCell>
        <mxCell id="80OV8Sp7y3rcq8Tu3NWQ-4" value="c != End of file" style="rhombus;whiteSpace=wrap;html=1;" parent="mvioNwK95yMqdUQ73LqQ-36" vertex="1">
          <mxGeometry x="252.5" y="580" width="135" height="130" as="geometry" />
        </mxCell>
        <mxCell id="80OV8Sp7y3rcq8Tu3NWQ-9" style="edgeStyle=orthogonalEdgeStyle;rounded=0;orthogonalLoop=1;jettySize=auto;html=1;" parent="mvioNwK95yMqdUQ73LqQ-36" source="80OV8Sp7y3rcq8Tu3NWQ-8" target="80OV8Sp7y3rcq8Tu3NWQ-4" edge="1">
          <mxGeometry relative="1" as="geometry" />
        </mxCell>
        <mxCell id="80OV8Sp7y3rcq8Tu3NWQ-8" value="read character in file a15-1.txt store in c" style="rounded=0;whiteSpace=wrap;html=1;" parent="mvioNwK95yMqdUQ73LqQ-36" vertex="1">
          <mxGeometry x="260" y="420" width="120" height="60" as="geometry" />
        </mxCell>
        <mxCell id="80OV8Sp7y3rcq8Tu3NWQ-14" style="edgeStyle=orthogonalEdgeStyle;rounded=0;orthogonalLoop=1;jettySize=auto;html=1;entryX=0;entryY=0.5;entryDx=0;entryDy=0;" parent="mvioNwK95yMqdUQ73LqQ-36" source="80OV8Sp7y3rcq8Tu3NWQ-12" target="80OV8Sp7y3rcq8Tu3NWQ-13" edge="1">
          <mxGeometry relative="1" as="geometry">
            <Array as="points">
              <mxPoint x="70" y="1290" />
              <mxPoint x="70" y="380" />
            </Array>
          </mxGeometry>
        </mxCell>
        <mxCell id="80OV8Sp7y3rcq8Tu3NWQ-12" value="Display c" style="shape=parallelogram;perimeter=parallelogramPerimeter;whiteSpace=wrap;html=1;fixedSize=1;" parent="mvioNwK95yMqdUQ73LqQ-36" vertex="1">
          <mxGeometry x="267.5" y="1250" width="120" height="60" as="geometry" />
        </mxCell>
        <mxCell id="80OV8Sp7y3rcq8Tu3NWQ-16" style="edgeStyle=orthogonalEdgeStyle;rounded=0;orthogonalLoop=1;jettySize=auto;html=1;entryX=0.5;entryY=0;entryDx=0;entryDy=0;" parent="mvioNwK95yMqdUQ73LqQ-36" source="80OV8Sp7y3rcq8Tu3NWQ-13" target="80OV8Sp7y3rcq8Tu3NWQ-8" edge="1">
          <mxGeometry relative="1" as="geometry" />
        </mxCell>
        <mxCell id="80OV8Sp7y3rcq8Tu3NWQ-13" value="" style="ellipse;whiteSpace=wrap;html=1;aspect=fixed;" parent="mvioNwK95yMqdUQ73LqQ-36" vertex="1">
          <mxGeometry x="310" y="370" width="20" height="20" as="geometry" />
        </mxCell>
        <mxCell id="80OV8Sp7y3rcq8Tu3NWQ-19" style="edgeStyle=orthogonalEdgeStyle;rounded=0;orthogonalLoop=1;jettySize=auto;html=1;" parent="mvioNwK95yMqdUQ73LqQ-36" source="80OV8Sp7y3rcq8Tu3NWQ-17" edge="1">
          <mxGeometry relative="1" as="geometry">
            <mxPoint x="305" y="1590" as="targetPoint" />
          </mxGeometry>
        </mxCell>
        <mxCell id="80OV8Sp7y3rcq8Tu3NWQ-17" value="close file" style="rounded=0;whiteSpace=wrap;html=1;" parent="mvioNwK95yMqdUQ73LqQ-36" vertex="1">
          <mxGeometry x="245" y="1440" width="120" height="60" as="geometry" />
        </mxCell>
        <mxCell id="80OV8Sp7y3rcq8Tu3NWQ-20" value="&lt;font data-font-src=&quot;https://fonts.googleapis.com/css?family=Sarabun&quot; face=&quot;Sarabun&quot;&gt;End&lt;/font&gt;" style="ellipse;whiteSpace=wrap;html=1;" parent="mvioNwK95yMqdUQ73LqQ-36" vertex="1">
          <mxGeometry x="240" y="1590" width="130" height="30" as="geometry" />
        </mxCell>
        <mxCell id="80OV8Sp7y3rcq8Tu3NWQ-21" value="Yes" style="text;html=1;align=center;verticalAlign=middle;resizable=0;points=[];autosize=1;strokeColor=none;fillColor=none;" parent="mvioNwK95yMqdUQ73LqQ-36" vertex="1">
          <mxGeometry x="260" y="698" width="40" height="30" as="geometry" />
        </mxCell>
        <mxCell id="80OV8Sp7y3rcq8Tu3NWQ-22" value="No" style="text;html=1;align=center;verticalAlign=middle;resizable=0;points=[];autosize=1;strokeColor=none;fillColor=none;" parent="mvioNwK95yMqdUQ73LqQ-36" vertex="1">
          <mxGeometry x="380" y="610" width="40" height="30" as="geometry" />
        </mxCell>
        <mxCell id="dBXoA28u9Rb0vNE5w-us-1" style="edgeStyle=orthogonalEdgeStyle;rounded=0;orthogonalLoop=1;jettySize=auto;html=1;" edge="1" parent="mvioNwK95yMqdUQ73LqQ-36" source="dBXoA28u9Rb0vNE5w-us-0">
          <mxGeometry relative="1" as="geometry">
            <mxPoint x="320" y="910" as="targetPoint" />
          </mxGeometry>
        </mxCell>
        <mxCell id="dBXoA28u9Rb0vNE5w-us-11" style="edgeStyle=orthogonalEdgeStyle;rounded=0;orthogonalLoop=1;jettySize=auto;html=1;" edge="1" parent="mvioNwK95yMqdUQ73LqQ-36" source="dBXoA28u9Rb0vNE5w-us-0">
          <mxGeometry relative="1" as="geometry">
            <mxPoint x="330" y="1233.4782608695652" as="targetPoint" />
            <Array as="points">
              <mxPoint x="470" y="810" />
              <mxPoint x="470" y="1234" />
            </Array>
          </mxGeometry>
        </mxCell>
        <mxCell id="dBXoA28u9Rb0vNE5w-us-0" value="c != empty space?" style="rhombus;whiteSpace=wrap;html=1;" vertex="1" parent="mvioNwK95yMqdUQ73LqQ-36">
          <mxGeometry x="280" y="770" width="80" height="80" as="geometry" />
        </mxCell>
        <mxCell id="dBXoA28u9Rb0vNE5w-us-2" value="Yes" style="text;html=1;align=center;verticalAlign=middle;resizable=0;points=[];autosize=1;strokeColor=none;fillColor=none;" vertex="1" parent="mvioNwK95yMqdUQ73LqQ-36">
          <mxGeometry x="265" y="840" width="40" height="30" as="geometry" />
        </mxCell>
        <mxCell id="dBXoA28u9Rb0vNE5w-us-5" style="edgeStyle=orthogonalEdgeStyle;rounded=0;orthogonalLoop=1;jettySize=auto;html=1;" edge="1" parent="mvioNwK95yMqdUQ73LqQ-36" source="dBXoA28u9Rb0vNE5w-us-3">
          <mxGeometry relative="1" as="geometry">
            <mxPoint x="325" y="1020" as="targetPoint" />
          </mxGeometry>
        </mxCell>
        <mxCell id="dBXoA28u9Rb0vNE5w-us-3" value="c += 6&lt;div&gt;for shift to right&lt;/div&gt;" style="rounded=0;whiteSpace=wrap;html=1;" vertex="1" parent="mvioNwK95yMqdUQ73LqQ-36">
          <mxGeometry x="265" y="910" width="120" height="60" as="geometry" />
        </mxCell>
        <mxCell id="dBXoA28u9Rb0vNE5w-us-7" style="edgeStyle=orthogonalEdgeStyle;rounded=0;orthogonalLoop=1;jettySize=auto;html=1;" edge="1" parent="mvioNwK95yMqdUQ73LqQ-36" source="dBXoA28u9Rb0vNE5w-us-6">
          <mxGeometry relative="1" as="geometry">
            <mxPoint x="327" y="1140" as="targetPoint" />
          </mxGeometry>
        </mxCell>
        <mxCell id="dBXoA28u9Rb0vNE5w-us-12" style="edgeStyle=orthogonalEdgeStyle;rounded=0;orthogonalLoop=1;jettySize=auto;html=1;" edge="1" parent="mvioNwK95yMqdUQ73LqQ-36" source="dBXoA28u9Rb0vNE5w-us-6">
          <mxGeometry relative="1" as="geometry">
            <mxPoint x="470" y="1060" as="targetPoint" />
          </mxGeometry>
        </mxCell>
        <mxCell id="dBXoA28u9Rb0vNE5w-us-6" value="c &amp;gt; 90" style="rhombus;whiteSpace=wrap;html=1;" vertex="1" parent="mvioNwK95yMqdUQ73LqQ-36">
          <mxGeometry x="287" y="1020" width="80" height="80" as="geometry" />
        </mxCell>
        <mxCell id="dBXoA28u9Rb0vNE5w-us-9" style="edgeStyle=orthogonalEdgeStyle;rounded=0;orthogonalLoop=1;jettySize=auto;html=1;" edge="1" parent="mvioNwK95yMqdUQ73LqQ-36" source="dBXoA28u9Rb0vNE5w-us-8" target="80OV8Sp7y3rcq8Tu3NWQ-12">
          <mxGeometry relative="1" as="geometry" />
        </mxCell>
        <mxCell id="dBXoA28u9Rb0vNE5w-us-8" value="c -= 26" style="rounded=0;whiteSpace=wrap;html=1;" vertex="1" parent="mvioNwK95yMqdUQ73LqQ-36">
          <mxGeometry x="267" y="1140" width="120" height="60" as="geometry" />
        </mxCell>
        <mxCell id="dBXoA28u9Rb0vNE5w-us-13" value="No" style="text;html=1;align=center;verticalAlign=middle;resizable=0;points=[];autosize=1;strokeColor=none;fillColor=none;" vertex="1" parent="mvioNwK95yMqdUQ73LqQ-36">
          <mxGeometry x="347" y="760" width="40" height="30" as="geometry" />
        </mxCell>
        <mxCell id="dBXoA28u9Rb0vNE5w-us-14" value="No" style="text;html=1;align=center;verticalAlign=middle;resizable=0;points=[];autosize=1;strokeColor=none;fillColor=none;" vertex="1" parent="mvioNwK95yMqdUQ73LqQ-36">
          <mxGeometry x="360" y="1020" width="40" height="30" as="geometry" />
        </mxCell>
        <mxCell id="dBXoA28u9Rb0vNE5w-us-15" value="Yes" style="text;html=1;align=center;verticalAlign=middle;resizable=0;points=[];autosize=1;strokeColor=none;fillColor=none;" vertex="1" parent="mvioNwK95yMqdUQ73LqQ-36">
          <mxGeometry x="280" y="1100" width="40" height="30" as="geometry" />
        </mxCell>
      </root>
    </mxGraphModel>
  </diagram>
</mxfile>
